<?xml version="1.0" encoding="UTF-8"?>
<svg version="1.1" xmlns="http://www.w3.org/2000/svg" width="512" height="512">
<path d="M0 0 C1.87213417 0.48305855 1.87213417 0.48305855 3.78208923 0.97587585 C6.40639932 1.65380808 9.02906545 2.33767049 11.65063477 3.02612305 C14.98165359 3.90051676 18.31601377 4.76126663 21.65168095 5.61773396 C24.87372147 6.44672682 28.09298877 7.28623694 31.3125 8.125 C32.49505875 8.42932449 33.67761749 8.73364899 34.89601135 9.04719543 C52.35665233 13.65364339 66.95062738 21.09904881 76.59765625 37.08984375 C83.0699759 49.10750964 85.04760691 61.56456397 86.52514648 74.97363281 C86.78010881 77.28680504 87.04631591 79.5984774 87.31445312 81.91015625 C87.48371207 83.39185421 87.6523549 84.87362271 87.8203125 86.35546875 C87.89839645 87.04088745 87.97648041 87.72630615 88.05693054 88.43249512 C88.40194249 91.57716017 88.58984375 94.59082503 88.58984375 97.76171875 C133.79984375 97.76171875 179.00984375 97.76171875 225.58984375 97.76171875 C226.24984375 104.69171875 226.90984375 111.62171875 227.58984375 118.76171875 C233.58398976 148.28843797 250.1408555 175.96325425 275.34619141 193.1159668 C302.51074706 210.96576513 333.96931948 217.98357175 366.01464844 211.37890625 C373.25751888 209.64303438 380.28715907 207.11953102 387.2824707 204.58374023 C390.03834047 203.60193794 392.81227331 202.68009087 395.58984375 201.76171875 C394.96431559 211.55692108 393.9164622 221.27009655 392.65283203 231.0012207 C392.44361036 232.63762143 392.24215013 234.27503261 392.04833984 235.91333008 C389.41409656 258.14501518 389.41409656 258.14501518 381.21484375 264.76171875 C374.93914393 268.96612848 367.25003555 269.22582127 359.96011353 269.754776 C358.90128161 269.83745033 357.84244969 269.92012466 356.75153196 270.00530428 C353.21066121 270.28003035 349.66909438 270.54440223 346.12744141 270.80883789 C343.58614291 271.0039162 341.04489441 271.19964677 338.50369263 271.39598083 C333.0360232 271.81703843 327.56804825 272.23372139 322.09975052 272.64653206 C314.19242594 273.24355711 306.28580317 273.84948976 298.37933628 274.45775609 C285.54902974 275.44467027 272.71828696 276.42578291 259.88720703 277.40258789 C258.73617035 277.49021636 258.73617035 277.49021636 257.56188039 277.57961511 C254.45206953 277.8163589 251.34225824 278.05309718 248.23244623 278.28982589 C239.65830312 278.94258902 231.08425885 279.59664543 222.51025391 280.2512207 C221.74201351 280.30986976 220.97377312 280.36851883 220.18225272 280.42894513 C207.39117349 281.40557774 194.60037539 282.38585386 181.80974233 283.36831182 C173.91800975 283.97426733 166.02601791 284.57663435 158.13366203 285.17441808 C152.09765767 285.63178935 146.06200564 286.09364599 140.02647018 286.55716896 C137.54366943 286.7470403 135.06074597 286.93531437 132.57769775 287.12192154 C129.20402131 287.37566069 125.83081573 287.63493278 122.45767212 287.89564514 C121.46149514 287.96918703 120.46531816 288.04272891 119.438954 288.11849934 C118.54256378 288.1889249 117.64617357 288.25935046 116.72262001 288.33191013 C115.55326721 288.42084721 115.55326721 288.42084721 114.36029112 288.511581 C112.56718073 288.58397107 112.56718073 288.58397107 111.58984375 289.76171875 C111.86103912 292.88726937 112.19843848 295.97806218 112.5859375 299.08984375 C112.75453026 300.50157867 112.75453026 300.50157867 112.92652893 301.9418335 C113.28828757 304.9657783 113.65732916 307.9887739 114.02734375 311.01171875 C114.3929225 314.02047276 114.75689772 317.02939633 115.1174469 320.03875732 C115.34244483 321.91450301 115.57047116 323.78988849 115.80186462 325.66485596 C115.9568618 326.95078644 115.9568618 326.95078644 116.11499023 328.26269531 C116.2068309 329.01246643 116.29867157 329.76223755 116.39329529 330.534729 C116.60681128 332.95396917 116.60247521 335.33418407 116.58984375 337.76171875 C118.56636319 337.75618799 118.56636319 337.75618799 120.58281231 337.7505455 C151.89819485 337.66381739 183.21354553 337.59790838 214.5290202 337.55745743 C218.38775521 337.55245492 222.24648997 337.5472776 226.10522461 337.54199219 C226.87339318 337.54094295 227.64156176 337.5398937 228.43300817 337.53881267 C240.85292918 337.52143194 253.27277574 337.48990719 265.69265267 337.45310757 C278.44716076 337.41563308 291.20163 337.39346918 303.95619088 337.38536477 C311.8194035 337.37989045 319.68240563 337.36263292 327.54555342 337.33005288 C333.58636847 337.30630632 339.62700444 337.30391525 345.66787148 337.30928802 C348.13769955 337.30819125 350.6075359 337.3002837 353.07731628 337.28489685 C377.0526093 337.14290706 377.0526093 337.14290706 387.58984375 341.76171875 C389.32621094 342.52162109 389.32621094 342.52162109 391.09765625 343.296875 C405.46326527 351.68038713 415.89553242 363.7840297 420.56079102 379.78442383 C425.02215348 396.98547754 422.39688397 413.57789064 413.5 428.859375 C408.15312397 436.98356496 401.83901342 442.66271743 393.58984375 447.76171875 C392.97882813 448.15101563 392.3678125 448.5403125 391.73828125 448.94140625 C377.99232973 456.75298222 361.36445496 457.51824441 346.40380859 453.59643555 C335.45769741 450.44455967 327.58444553 444.72807105 319.58984375 436.76171875 C319.02523438 436.2203125 318.460625 435.67890625 317.87890625 435.12109375 C307.92643116 424.69469127 304.23672664 410.69740338 304.15234375 396.69921875 C304.11947266 395.76400391 304.08660156 394.82878906 304.05273438 393.86523438 C303.98280744 384.4632401 306.3225926 379.56347219 309.58984375 369.76171875 C260.41984375 369.76171875 211.24984375 369.76171875 160.58984375 369.76171875 C162.56984375 374.71171875 162.56984375 374.71171875 164.58984375 379.76171875 C169.03821177 396.88793561 166.35839298 413.64400361 157.5 428.859375 C152.15312397 436.98356496 145.83901342 442.66271743 137.58984375 447.76171875 C136.97882813 448.15101563 136.3678125 448.5403125 135.73828125 448.94140625 C121.99232973 456.75298222 105.36445496 457.51824441 90.40380859 453.59643555 C79.45769741 450.44455967 71.58444553 444.72807105 63.58984375 436.76171875 C63.02523437 436.2203125 62.460625 435.67890625 61.87890625 435.12109375 C50.08499591 422.76556863 47.90349087 406.81738482 48.21484375 390.5546875 C48.91204714 375.24360307 56.27605953 362.20801194 67.25390625 351.7734375 C72.3822554 347.35688263 76.88098312 343.98553897 83.58984375 342.76171875 C79.55207717 308.15278814 75.50999461 273.54436461 71.46214176 238.93661226 C70.9840074 234.84869566 70.5059087 230.7607749 70.02783203 226.67285156 C69.93265698 225.85903683 69.83748193 225.04522211 69.73942278 224.20674632 C68.19945918 211.03822018 66.66238227 197.86935862 65.12637629 184.70037033 C63.5496422 171.18275838 61.96979635 157.66551273 60.3870753 144.14860046 C59.41094577 135.81131609 58.43722997 127.47375715 57.46662258 119.13582806 C56.80035674 113.41434895 56.13106231 107.69322916 55.45941319 101.97237952 C55.07228919 98.67424098 54.68692675 95.37592229 54.30426788 92.07726097 C53.88836368 88.49385183 53.46739925 84.91107137 53.04519653 81.32839966 C52.92651187 80.29529919 52.80782721 79.26219872 52.68554604 78.19779217 C51.13676315 61.5540215 51.13676315 61.5540215 41.83984375 48.44921875 C34.61730323 43.1537006 25.30365249 41.58513125 16.76953125 39.546875 C14.27073545 38.93725002 11.77204051 38.32721153 9.2734375 37.71679688 C5.35972168 36.76629491 1.44536604 35.81884118 -2.47119141 34.88012695 C-6.26906817 33.96919443 -10.06218589 33.03925525 -13.85546875 32.109375 C-15.02433624 31.83319839 -16.19320374 31.55702179 -17.39749146 31.2724762 C-25.77054925 29.20533929 -31.33470304 27.09292894 -36.41015625 19.76171875 C-38.20925782 14.36441404 -38.10484529 9.66123591 -35.78515625 4.51171875 C-28.22150917 -9.18898006 -12.01198106 -3.15830251 0 0 Z M88.58984375 377.76171875 C82.04669485 385.80005262 80.77664415 392.48909443 81.58984375 402.76171875 C83.30691357 410.40732017 88.24785823 415.42514438 94.58984375 419.76171875 C101.35756773 423.12863318 107.81899979 423.72353918 115.08984375 421.57421875 C123.91266923 418.30872477 128.6012493 413.32782763 132.58984375 404.76171875 C134.42911879 397.36029871 133.99115043 390.59857345 130.58984375 383.76171875 C125.17238648 375.83900542 119.25230808 372.17733483 110.08984375 369.88671875 C101.65553051 369.58549328 94.91681078 372.13511017 88.58984375 377.76171875 Z M343.15234375 379.13671875 C337.44178609 386.70765639 336.60915681 393.3767728 337.58984375 402.76171875 C339.34177156 410.41180351 344.22931335 415.41246362 350.58984375 419.76171875 C357.35756773 423.12863318 363.81899979 423.72353918 371.08984375 421.57421875 C379.91266923 418.30872477 384.6012493 413.32782763 388.58984375 404.76171875 C390.42911879 397.36029871 389.99115043 390.59857345 386.58984375 383.76171875 C382.22876476 377.38389665 377.24377281 372.54607031 369.58984375 370.76171875 C359.19479219 369.40357131 350.41621611 371.24972008 343.15234375 379.13671875 Z " fill="#053C4E" transform="translate(63.41015625,30.23828125)"/>
<path d="M0 0 C45.21 0 90.42 0 137 0 C137.99 10.395 137.99 10.395 139 21 C144.99414601 50.52671922 161.55101175 78.2015355 186.75634766 95.35424805 C213.92090331 113.20404638 245.37947573 120.221853 277.42480469 113.6171875 C284.66767513 111.88131563 291.69731532 109.35781227 298.69262695 106.82202148 C301.44849672 105.84021919 304.22242956 104.91837212 307 104 C306.37447184 113.79520233 305.32661845 123.5083778 304.06298828 133.23950195 C303.85376661 134.87590268 303.65230638 136.51331386 303.45849609 138.15161133 C300.82425281 160.38329643 300.82425281 160.38329643 292.625 167 C286.35305209 171.20189613 278.6627748 171.46570502 271.3769989 171.99978638 C270.31887255 172.08316627 269.2607462 172.16654617 268.17055541 172.25245273 C264.63202372 172.52951652 261.09278934 172.79623216 257.5534668 173.06298828 C255.01379161 173.25970502 252.47416562 173.45705771 249.93458557 173.65499878 C243.75832226 174.13474728 237.58157902 174.60782913 231.40457501 175.07793154 C224.21295517 175.62559664 217.0219668 176.18134389 209.83100317 176.73754798 C197.00520471 177.72936441 184.17890972 178.71460253 171.35229492 179.69580078 C158.89985269 180.64838807 146.44768519 181.6044556 133.99584961 182.56494141 C133.22817462 182.62415587 132.46049963 182.68337034 131.66956177 182.74437918 C128.58404056 182.98239251 125.49852086 183.22042535 122.41300325 183.45848525 C98.79235093 185.28083805 75.17145683 187.10012845 51.54973412 188.90855789 C49.06882271 189.09858221 46.58793082 189.28886162 44.10705948 189.47940826 C40.73412297 189.73839962 37.36111462 189.99643318 33.98808289 190.25418091 C32.99481875 190.33063563 32.00155461 190.40709036 30.97819155 190.4858619 C29.63061966 190.58851367 29.63061966 190.58851367 28.25582409 190.69323921 C27.08704087 190.78274587 27.08704087 190.78274587 25.89464587 190.87406075 C24.59861207 190.96020958 23.29889385 191 22 191 C19.66295267 177.3055604 17.97069408 163.58993626 16.49557495 149.77804565 C15.85592006 143.79611614 15.20023261 137.81595452 14.54296875 131.8359375 C14.41215408 130.64510056 14.28133942 129.45426361 14.14656067 128.2273407 C13.00995771 117.95083087 11.75249377 107.69250441 10.4375 97.4375 C8.47909837 82.14980088 6.72694292 66.84538363 5.05749512 51.52349854 C3.79264058 39.91565311 2.51522726 28.31911801 0.81201172 16.76538086 C-0.00388767 11.0078228 0 5.96636014 0 0 Z " fill="#FBBE48" transform="translate(152,128)"/>
<path d="M0 0 C1.19882812 0.0309375 1.19882812 0.0309375 2.421875 0.0625 C10.15359122 2.62549985 16.49905921 11.11359621 22.125 16.77734375 C22.93493408 17.58869278 23.74486816 18.40004181 24.5793457 19.23597717 C27.13861015 21.80079139 29.6943553 24.36907948 32.25 26.9375 C33.99586133 28.68838283 35.74195287 30.43903613 37.48828125 32.18945312 C41.74485198 36.45698616 45.99854716 40.72736866 50.25 45 C53.5424155 43.56300579 55.69176049 41.79290363 58.20483398 39.24047852 C59.3513871 38.08401573 59.3513871 38.08401573 60.52110291 36.90419006 C61.33784988 36.07084641 62.15459686 35.23750275 62.99609375 34.37890625 C63.84422134 33.52320541 64.69234894 32.66750458 65.56617737 31.78587341 C69.19497903 28.12436462 72.81189821 24.45119724 76.42993164 20.77905273 C79.07289972 18.09992849 81.7218284 15.42680121 84.37109375 12.75390625 C85.1858165 11.92258682 86.00053925 11.0912674 86.83995056 10.23475647 C87.99123192 9.07356544 87.99123192 9.07356544 89.16577148 7.88891602 C89.83543442 7.20877945 90.50509735 6.52864288 91.1950531 5.82789612 C96.40328084 1.1951247 101.34862819 -0.34664425 108.25 0 C113.60522424 1.54706478 117.22390912 4.27929822 120.25 9 C121.15402948 11.71208843 121.44179124 13.50392749 121.5 16.3125 C121.53867187 17.42044922 121.53867187 17.42044922 121.578125 18.55078125 C120.85508769 23.94773833 117.82310736 27.80142514 114.05395508 31.53662109 C113.21331009 32.37703949 112.3726651 33.21745789 111.50654602 34.08334351 C110.60333115 34.97107452 109.70011627 35.85880554 108.76953125 36.7734375 C107.84154221 37.6971817 106.91355316 38.6209259 105.95744324 39.57266235 C103.50302056 42.01568925 101.03972084 44.44956766 98.57440186 46.8815918 C96.05519832 49.36998032 93.54457878 51.86699715 91.03320312 54.36328125 C86.11379192 59.25062142 81.18493983 64.12834151 76.25 69 C77.7138111 72.38709624 79.58395706 74.56272739 82.20898438 77.13842773 C83.02322876 77.94283798 83.83747314 78.74724823 84.6763916 79.57603455 C85.55661987 80.43652908 86.43684814 81.29702362 87.34375 82.18359375 C89.19673247 84.01615685 91.04959332 85.84884293 92.90234375 87.68164062 C95.82865599 90.56651164 98.7593612 93.44689408 101.69189453 96.32543945 C104.52110685 99.10366766 107.33841666 101.89382491 110.15625 104.68359375 C111.03647827 105.54206406 111.91670654 106.40053436 112.8236084 107.28501892 C113.63785278 108.09258133 114.45209717 108.90014374 115.29101562 109.73217773 C116.00890259 110.43737045 116.72678955 111.14256317 117.46643066 111.86912537 C121.07298166 116.17796152 121.64448204 120.35292585 121.5 125.7890625 C120.98366065 130.35543863 119.15351783 133.14403574 115.875 136.25 C110.95281478 139.53145681 107.21074619 140.60617758 101.25 140 C93.80130595 137.04101232 89.04630973 132.32077425 83.5 126.640625 C82.60128174 125.73624695 81.70256348 124.8318689 80.77661133 123.90008545 C78.4085693 121.51353826 76.04958631 119.1187247 73.69464111 116.71929932 C71.2816952 114.26516746 68.85714438 111.82255806 66.43359375 109.37890625 C61.69505088 104.59639987 56.96812933 99.80264172 52.25 95 C48.86290376 96.4638111 46.68727261 98.33395706 44.11157227 100.95898438 C43.30716202 101.77322876 42.50275177 102.58747314 41.67396545 103.4263916 C40.81347092 104.30661987 39.95297638 105.18684814 39.06640625 106.09375 C37.23384315 107.94673247 35.40115707 109.79959332 33.56835938 111.65234375 C30.68348836 114.57865599 27.80310592 117.5093612 24.92456055 120.44189453 C22.14633234 123.27110685 19.35617509 126.08841666 16.56640625 128.90625 C15.70793594 129.78647827 14.84946564 130.66670654 13.96498108 131.5736084 C13.15741867 132.38785278 12.34985626 133.20209717 11.51782227 134.04101562 C10.81262955 134.75890259 10.10743683 135.47678955 9.38087463 136.21643066 C5.34052556 139.59825454 1.48328991 140.41382223 -3.765625 140.24609375 C-8.49443349 139.65964703 -11.55172307 137.4558079 -14.5625 133.9375 C-17.35538209 130.18705833 -17.94173431 128.42066462 -18.0625 123.8125 C-18.09988281 122.89082031 -18.13726562 121.96914062 -18.17578125 121.01953125 C-16.99712649 112.66081447 -10.33910297 107.19228586 -4.609375 101.56640625 C-3.28610199 100.2495005 -3.28610199 100.2495005 -1.93609619 98.9059906 C0.39297775 96.59080261 2.72838866 94.28227277 5.06713867 91.97686768 C7.45911159 89.61576747 9.8424504 87.24598585 12.2265625 84.87695312 C16.89318247 80.24331874 21.56827228 75.61836664 26.25 71 C24.81400605 67.70801459 23.04792417 65.56769699 20.49047852 63.06103516 C19.71950333 62.2998941 18.94852814 61.53875305 18.15419006 60.75454712 C17.32084641 59.94093719 16.48750275 59.12732727 15.62890625 58.2890625 C13.87162512 56.55220441 12.11446748 54.81522136 10.35742188 53.078125 C7.5838156 50.34800604 4.80780151 47.62039259 2.02905273 44.89550781 C-0.65245954 42.26232609 -3.32466212 39.61996504 -5.99609375 36.9765625 C-6.82741318 36.16700104 -7.6587326 35.35743958 -8.51524353 34.52334595 C-13.16675368 29.91198589 -17.13628638 25.93661347 -18.18359375 19.21875 C-18.19210479 13.29506542 -17.89004919 9.58762207 -13.75 5 C-9.31248384 0.89529756 -5.98564924 -0.30500124 0 0 Z " fill="#E63846" transform="translate(353.75,58)"/>
<path d="M0 0 C13.62949761 9.79277576 22.00546423 22.8993272 25.2890625 39.22265625 C27.94328024 55.66221735 24.02328753 71.25294387 14.9140625 85.09375 C9.93567708 91.87304823 4.03978248 96.68917875 -3.0859375 101.09375 C-3.69695312 101.48304688 -4.30796875 101.87234375 -4.9375 102.2734375 C-18.68345152 110.08501347 -35.31132629 110.85027566 -50.27197266 106.9284668 C-61.21808384 103.77659092 -69.09133572 98.0601023 -77.0859375 90.09375 C-77.65054687 89.55234375 -78.21515625 89.0109375 -78.796875 88.453125 C-90.70094747 75.98219194 -92.69835636 60.0543585 -92.38671875 43.67578125 C-91.80582309 29.24901048 -83.78245336 15.56841849 -73.23046875 5.828125 C-51.86773536 -11.44883971 -23.63619017 -14.71804981 0 0 Z M-53.5234375 32.46875 C-59.23399516 40.03968764 -60.06662444 46.70880405 -59.0859375 56.09375 C-57.33400969 63.74383476 -52.4464679 68.74449487 -46.0859375 73.09375 C-39.31821352 76.46066443 -32.85678146 77.05557043 -25.5859375 74.90625 C-16.76311202 71.64075602 -12.07453195 66.65985888 -8.0859375 58.09375 C-6.24666246 50.69232996 -6.68463082 43.9306047 -10.0859375 37.09375 C-14.44701649 30.7159279 -19.43200844 25.87810156 -27.0859375 24.09375 C-37.48098906 22.73560256 -46.25956514 24.58175133 -53.5234375 32.46875 Z " fill="#0A4E6B" transform="translate(460.0859375,376.90625)"/>
<path d="M0 0 C14.55471651 11.49404238 24.03846875 24.53425296 27 43 C28.82696871 59.01394004 23.55314129 74.71453733 14.12109375 87.55859375 C9.48176539 93.11641541 4.13729041 97.20639978 -2 101 C-2.61101562 101.38929688 -3.22203125 101.77859375 -3.8515625 102.1796875 C-17.59751402 109.99126347 -34.22538879 110.75652566 -49.18603516 106.8347168 C-60.13214634 103.68284092 -68.00539822 97.9663523 -76 90 C-76.56460938 89.45859375 -77.12921875 88.9171875 -77.7109375 88.359375 C-89.50484784 76.00384988 -91.68635288 60.05566607 -91.375 43.79296875 C-90.67849659 28.49725646 -83.32495102 15.37654786 -72.296875 4.99609375 C-64.29038341 -1.96192871 -56.0416984 -5.06581339 -46 -8 C-45.34128906 -8.20367187 -44.68257812 -8.40734375 -44.00390625 -8.6171875 C-29.71495662 -11.34685039 -12.08586921 -8.08460521 0 0 Z M-51 31 C-57.5431489 39.03833387 -58.8131996 45.72737568 -58 56 C-56.28293018 63.64560142 -51.34198552 68.66342563 -45 73 C-38.23227602 76.36691443 -31.77084396 76.96182043 -24.5 74.8125 C-15.67717452 71.54700602 -10.98859445 66.56610888 -7 58 C-5.16072496 50.59857996 -5.59869332 43.8368547 -9 37 C-14.41745727 29.07728667 -20.33753567 25.41561608 -29.5 23.125 C-37.93431324 22.82377453 -44.67303297 25.37339142 -51 31 Z " fill="#0A4E6B" transform="translate(203,377)"/>
</svg>
